<?xml version="1.0" encoding="UTF-8"?>
<svg xmlns="http://www.w3.org/2000/svg" version="1.1" viewBox="0 0 16 16">
  <defs>
    <style>
      .cls-1 {
        fill: none;
        stroke: #231f20;
        stroke-miterlimit: 10;
      }
    </style>
  </defs>
  <!-- Generator: Adobe Illustrator 28.7.1, SVG Export Plug-In . SVG Version: 1.2.0 Build 142)  -->
  <g>
    <g id="Layer_1">
      <g>
        <path class="cls-1" d="M8,2.76h-2.59c-.08,0-.14.09-.12.17l.44,1.41c.03.08-.03.17-.12.17h-2.44c-.08,0-.14.07-.12.15l1.61,8.48c.01.06.06.1.12.1h3.21"/>
        <path class="cls-1" d="M8,2.76h2.59c.08,0,.14.09.12.17l-.44,1.41c-.03.08.03.17.12.17h2.44c.08,0,.14.07.12.15l-1.61,8.48c-.01.06-.06.1-.12.1h-3.21"/>
      </g>
    </g>
  </g>
</svg>