<?xml version="1.0" standalone="no"?>
<!DOCTYPE svg PUBLIC "-//W3C//DTD SVG 20010904//EN"
 "http://www.w3.org/TR/2001/REC-SVG-20010904/DTD/svg10.dtd">
<svg version="1.0" xmlns="http://www.w3.org/2000/svg"
 width="700.000000pt" height="700.000000pt" viewBox="0 0 700.000000 700.000000"
 preserveAspectRatio="xMidYMid meet">
<metadata>
Created by potrace 1.14, written by Peter Selinger 2001-2017
</metadata>
<g transform="translate(0.000000,700.000000) scale(0.100000,-0.100000)"
fill="#000000" stroke="none">
<path d="M2275 5993 c-106 -43 -176 -143 -177 -255 -1 -49 10 -98 51 -228 78
-243 81 -254 75 -259 -3 -3 -204 -6 -447 -7 -279 -1 -454 -5 -474 -12 -69 -22
-134 -81 -164 -148 -26 -57 -28 -113 -8 -218 9 -50 20 -107 23 -126 3 -19 8
-46 11 -60 11 -55 25 -126 29 -150 3 -14 14 -74 26 -135 11 -60 23 -123 26
-140 3 -16 14 -75 24 -130 23 -121 22 -116 55 -290 15 -77 29 -151 31 -165 3
-14 11 -56 19 -95 8 -38 17 -84 20 -101 2 -17 18 -102 35 -189 17 -87 33 -172
35 -189 3 -17 8 -38 10 -46 2 -8 6 -33 10 -55 3 -22 10 -56 15 -75 4 -19 11
-53 14 -75 3 -22 16 -96 30 -165 14 -69 39 -199 56 -290 17 -91 42 -221 55
-290 13 -69 26 -139 29 -156 3 -18 24 -128 46 -245 109 -570 107 -566 174
-632 18 -18 50 -42 72 -53 38 -19 75 -19 1524 -19 l1485 0 45 24 c102 53 136
116 170 316 5 33 12 69 14 80 2 11 16 81 30 155 15 74 29 146 31 160 3 14 21
108 40 210 19 102 37 196 40 210 3 14 7 39 10 55 3 17 10 53 15 80 5 28 12 61
14 75 3 14 23 122 46 240 23 118 43 226 46 240 3 14 25 133 50 265 44 235 85
450 124 650 20 102 30 155 36 190 1 11 5 29 7 40 3 11 8 40 13 65 4 25 8 47 9
50 1 3 5 25 9 50 5 25 10 54 12 65 2 11 6 31 9 45 6 31 23 117 29 146 4 20 6
33 22 129 3 22 8 43 9 46 2 3 9 32 14 65 13 72 17 98 37 194 29 139 18 229
-36 297 -28 36 -92 82 -132 95 -21 7 -192 11 -475 12 -243 1 -445 4 -447 7 -5
5 20 89 100 343 48 150 30 252 -60 340 -84 81 8 76 -1320 75 -1059 0 -1185 -2
-1221 -16z m2129 -424 c2 -2 -25 -96 -60 -209 -94 -294 -92 -363 11 -466 84
-85 79 -84 603 -84 372 -1 452 -3 452 -14 0 -8 -9 -56 -19 -107 -11 -52 -22
-110 -25 -129 -3 -19 -10 -57 -15 -85 -6 -27 -27 -135 -46 -240 -20 -104 -52
-273 -72 -375 -19 -102 -37 -194 -39 -205 -15 -83 -78 -415 -99 -525 -14 -74
-27 -144 -29 -155 -11 -60 -50 -263 -66 -345 -11 -52 -21 -108 -24 -125 -3
-16 -10 -55 -16 -85 -6 -30 -13 -68 -16 -85 -3 -16 -18 -100 -35 -185 -39
-205 -58 -308 -65 -345 -3 -16 -11 -61 -19 -100 -8 -38 -17 -83 -19 -100 -6
-32 -25 -130 -31 -155 -2 -8 -4 -17 -4 -20 -1 -3 -286 -5 -633 -5 l-633 0 0
-37 c0 -20 -3 -39 -6 -42 -3 -3 -5 9 -4 26 1 18 0 38 -2 44 -2 7 -199 10 -629
10 -406 -1 -628 3 -633 9 -6 8 -20 73 -37 175 -4 23 -24 129 -35 180 -5 25
-11 57 -13 73 -3 15 -7 35 -10 45 -3 9 -7 33 -10 52 -9 56 -26 146 -86 460
-23 118 -44 226 -46 240 -2 14 -15 81 -29 150 -13 69 -38 199 -55 290 -17 91
-33 176 -35 190 -3 14 -7 36 -10 50 -3 14 -16 84 -30 155 -13 72 -27 144 -30
160 -6 33 -12 66 -20 105 -3 14 -10 51 -15 82 -6 32 -13 70 -16 85 -3 16 -14
73 -25 128 -11 55 -26 136 -34 180 -8 44 -17 91 -20 105 -3 14 -9 50 -15 80
-6 30 -12 66 -15 80 -36 182 -55 288 -55 302 0 4 204 7 453 8 248 0 466 4 483
9 121 35 209 157 200 276 -4 55 -12 83 -112 395 -13 41 -24 75 -24 77 0 9
1805 12 1814 2z m-894 -4249 c0 -5 -2 -10 -4 -10 -3 0 -8 5 -11 10 -3 6 -1 10
4 10 6 0 11 -4 11 -10z m-4 -61 c1 -16 -1 -31 -5 -33 -3 -3 -6 13 -6 34 0 44
9 44 11 -1z m4 -59 c0 -5 -2 -10 -4 -10 -3 0 -8 5 -11 10 -3 6 -1 10 4 10 6 0
11 -4 11 -10z m-4 -61 c1 -16 -1 -31 -5 -33 -3 -3 -6 13 -6 34 0 44 9 44 11
-1z m4 -59 c0 -5 -2 -10 -4 -10 -3 0 -8 5 -11 10 -3 6 -1 10 4 10 6 0 11 -4
11 -10z m-5 -55 c1 -14 -2 -22 -5 -19 -3 3 -5 16 -5 29 -1 14 2 22 5 19 3 -3
5 -16 5 -29z"/>
</g>
</svg>
